<svg width="800" height="800" viewBox="0 0 800 800" xmlns="http://www.w3.org/2000/svg">
  <defs>
    <linearGradient id="deskBg" x1="0%" y1="0%" x2="0%" y2="100%">
      <stop offset="0%" style="stop-color:#e3f2fd;stop-opacity:1" />
      <stop offset="100%" style="stop-color:#fff8e1;stop-opacity:1" />
    </linearGradient>
  </defs>

  <rect width="800" height="800" fill="url(#deskBg)"/>

  <!-- Desk surface -->
  <rect x="50" y="500" width="700" height="250" fill="#D2691E"/>

  <!-- Accessories on desk -->
  <!-- Pins box -->
  <rect x="100" y="550" width="80" height="50" fill="#8B4513" rx="4"/>
  <circle cx="120" cy="565" r="3" fill="#FF6B6B"/>
  <circle cx="135" cy="565" r="3" fill="#4ECDC4"/>
  <circle cx="150" cy="565" r="3" fill="#FFD700"/>

  <!-- Stickers roll -->
  <ellipse cx="450" cy="600" rx="60" ry="40" fill="#FF69B4" opacity="0.6"/>
  <ellipse cx="450" cy="600" rx="40" ry="25" fill="#FFF"/>

  <!-- Scissors -->
  <g transform="translate(600, 570)">
    <circle cx="0" cy="0" r="15" fill="none" stroke="#808080" stroke-width="3"/>
    <circle cx="25" cy="0" r="15" fill="none" stroke="#808080" stroke-width="3"/>
    <path d="M 0 15 L 12.5 40" stroke="#808080" stroke-width="3"/>
    <path d="M 25 15 L 12.5 40" stroke="#808080" stroke-width="3"/>
  </g>

  <!-- Empty board preview at angle -->
  <rect x="200" y="150" width="400" height="300" fill="#CD853F" transform="rotate(-5 400 300)"/>
  <rect x="210" y="160" width="380" height="280" fill="#DEB887" transform="rotate(-5 400 300)"/>
</svg>
